inDegrees=yes
name=ik_S52_A10_T01
DataType=double
version=3
OpenSimVersion=4.3-2021-08-27-4bc7ad9
endheader
time	pelvis_tilt	pelvis_list	pelvis_rotation	pelvis_tx	pelvis_ty	pelvis_tz	hip_flexion_r	hip_adduction_r	hip_rotation_r	knee_angle_r	knee_angle_r_beta	ankle_angle_r	subtalar_angle_r	mtp_angle_r	hip_flexion_l	hip_adduction_l	hip_rotation_l	knee_angle_l	knee_angle_l_beta	ankle_angle_l	subtalar_angle_l	mtp_angle_l	lumbar_extension	lumbar_bending	lumbar_rotation	arm_flex_r	arm_add_r	arm_rot_r	elbow_flex_r	pro_sup_r	wrist_flex_r	wrist_dev_r	arm_flex_l	arm_add_l	arm_rot_l	elbow_flex_l	pro_sup_l	wrist_flex_l	wrist_dev_l
6.619999999999947	0.4535004665105625	0.4906453762504409	26.44371010021746	0	0.9399999999999999	0	41.80309911365203	-9.979856321634934	-9.898811078028523	49.92854585147181	0.8714175158411388	0	0	0	41.80309911365203	-9.979856321634934	-9.898811078028523	49.92854585147181	0.8714175158411388	0	0	0	0.6858963295146491	0.160389470900893	1.495869752724338	59.91990950822154	-5.403570312774043	-2.255040451960745	50.24125200743608	85.51818301651537	0	0	55.58377949607039	-15.64806751996891	-1.034965312323723	59.04396280810415	74.71720083936917	0	0
6.639999999999946	0.3919939920463946	0.4795446850703914	26.39985155687352	0	0.9399999999999999	0	41.82104761334713	-9.980133769460792	-9.899829569453448	49.9532829244241	0.8718492592114623	0	0	0	41.82104761334713	-9.980133769460792	-9.899829569453448	49.9532829244241	0.8718492592114623	0	0	0	0.6300538742415913	0.1645171773391493	1.464845674412564	58.64514524191648	-4.810158622276298	-2.777398137102607	47.82661158470299	86.61634213424195	0	0	54.26371523918206	-15.08304552048032	-1.494633273109725	56.91870543937833	75.73105360617785	0	0
6.659999999999946	0.347700436438044	0.4742467838934272	26.33516370286454	0	0.9399999999999999	0	41.83860022546821	-9.980404286556823	-9.90082403838395	49.97744704504769	0.8722710026771929	0	0	0	41.83860022546821	-9.980404286556823	-9.90082403838395	49.97744704504769	0.8722710026771929	0	0	0	0.5902123092906917	0.1729719599790897	1.421213376733162	57.45530936895961	-4.356474188588195	-3.212056920366824	45.53232188227819	88.96436089465608	0	0	52.89372372876199	-14.48110513678996	-2.211930657341302	54.86155463844488	77.33078477366922	0	0
6.679999999999946	0.3221037048396695	0.46615681699148	26.29685825287392	0	0.9399999999999999	0	41.85525182585172	-9.980658721357315	-9.901763236602653	50.00036780589747	0.8726710454210839	0	0	0	41.85525182585172	-9.980658721357315	-9.901763236602653	50.00036780589747	0.8726710454210839	0	0	0	0.5664669010901886	0.1706381451784405	1.394572763377334	56.29011953205275	-4.210408139766009	-3.317390803544596	43.40919298890149	91.13099306576328	0	0	51.56454843859174	-14.30624944065955	-2.557398803573817	54.53885876954587	77.99133057283071	0	0
6.699999999999945	0.2245058231579062	0.4062208603812412	26.11347264572587	0	0.9399999999999999	0	41.87167961944458	-9.980908431035509	-9.90268742482467	50.02294652362834	0.873065118386366	0	0	0	41.87167961944458	-9.980908431035509	-9.90268742482467	50.02294652362834	0.873065118386366	0	0	0	0.4522764848300228	0.1582106483886689	1.23991506600969	55.21448417452545	-3.713504727164079	-2.742715058680102	41.61115390212147	91.57092538851448	0	0	50.238466282702	-14.36352550269294	-2.429209072898263	53.14216602168917	78.07304812543211	0	0
6.719999999999945	0.153217112097137	0.4144449911226536	26.03116852604784	0	0.9399999999999999	0	41.89104673337353	-9.98119425263244	-9.903759003842083	50.04984185870705	0.8735345305369167	0	0	0	41.89104673337353	-9.98119425263244	-9.903759003842083	50.04984185870705	0.8735345305369167	0	0	0	0.3912104238711164	0.1979572077681024	1.184780266637647	53.84621639664648	-3.17746320567191	-2.129705601308342	40.21943153368902	91.63295516265919	0	0	48.60911419222948	-14.02329996872875	-1.78091623725531	50.98968156008115	77.78330419237439	0	0
6.739999999999944	0.1350713869063132	0.4127131929820554	25.97344853290772	0	0.9399999999999999	0	41.91194322022047	-9.981498974188105	-9.904907474077632	50.07893656652348	0.874042328983219	0	0	0	41.91194322022047	-9.981498974188105	-9.904907474077632	50.07893656652348	0.874042328983219	0	0	0	0.3711945883945234	0.2104495983960148	1.178901996171108	52.34899937005559	-2.722366473870124	-1.875541698326546	38.77689016393711	92.63323513628882	0	0	46.92030172650156	-13.68961709272349	-1.289084687036826	51.34926988637607	78.0087175548512	0	0
6.759999999999944	0.09631366899402465	0.3764324209104318	25.85855476337037	0	0.9399999999999999	0	41.91360631258025	-9.981533702520851	-9.905021994635959	50.08071863052033	0.8740734318674453	0	0	0	41.91360631258025	-9.981533702520851	-9.905021994635959	50.08071863052033	0.8740734318674453	0	0	0	0.3196463722238246	0.1978272685507538	1.201012166667446	52.46387986328375	-2.624488368528962	-1.82976749967042	38.78296465334547	92.63130589424266	0	0	45.41177476195537	-13.24213001549518	-1.397209445670612	50.04964158527804	79.26388968466077	0	0
6.779999999999943	0.04705399850045137	0.3392875842507364	25.76307083387224	0	0.9399999999999999	0	41.9446316455815	-9.98197341803017	-9.906699680210538	50.12437970170616	0.8748354613145857	0	0	0	41.9446316455815	-9.98197341803017	-9.906699680210538	50.12437970170616	0.8748354613145857	0	0	0	0.2672425945685095	0.1669901207265055	1.175538575854274	49.88335623163119	-2.844801198866285	-1.62830678824265	38.83906530687658	93.6850004021837	0	0	43.96948643259957	-12.94048042559086	-1.500977254295436	48.60377842757559	79.90834866738896	0	0
6.799999999999943	0.0112614861362257	0.3301612225546545	25.73635711602351	0	0.9399999999999999	0	41.97343477003287	-9.982375957187324	-9.908245797244438	50.16487876323382	0.8755423032822111	0	0	0	41.97343477003287	-9.982375957187324	-9.908245797244438	50.16487876323382	0.8755423032822111	0	0	0	0.230764902140674	0.175210973010163	1.175129546133286	48.61600304219137	-2.955982848381361	-1.101310811112028	40.31984477724834	93.24782258856382	0	0	42.30211830437794	-12.58375154576604	-1.276051049659185	47.64749074273621	79.52683416157744	0	0
6.819999999999943	-0.03067315806126179	0.3108183251366762	25.7079024780512	0	0.9399999999999999	0	41.99148161598263	-9.982631664709675	-9.909222683836923	50.18993581257259	0.8759796312940074	0	0	0	41.99148161598263	-9.982631664709675	-9.909222683836923	50.18993581257259	0.8759796312940074	0	0	0	0.1813111447910002	0.1845326931283935	1.17608653212168	47.21598945786643	-2.272001366842927	-1.305535352410746	33.61290693199938	96.66036259390559	0	0	40.55192124623301	-12.20328591012265	-1.018628371316374	48.10140534917555	79.36986357980264	0	0
6.839999999999942	-0.09273954078492209	0.2954709205015057	25.7190948277881	0	0.9399999999999999	0	42.01350439738749	-9.98293126262401	-9.910388094356863	50.22092526052624	0.876520499194174	0	0	0	42.01350439738749	-9.98293126262401	-9.910388094356863	50.22092526052624	0.876520499194174	0	0	0	0.1184726978845996	0.1992842897842987	1.176671197985083	47.32259090767674	-2.142618806101664	-1.483529970430388	30.96818602885255	97.40070906236498	0	0	37.35757378267234	-11.26010027215211	-1.809261350549378	46.13490261920504	81.84529432961637	0	0
6.859999999999942	-0.0864532531736428	0.2754710323986806	25.70390307114208	0	0.9399999999999999	0	42.04018677253352	-9.983288536503096	-9.911787389073108	50.25863597323173	0.8771786752941584	0	0	0	42.04018677253352	-9.983288536503096	-9.911787389073108	50.25863597323173	0.8771786752941584	0	0	0	0.1175748037139855	0.1762693380790635	1.18278749854973	44.29104107385783	-2.219725043573128	-1.599512136975788	31.41288221171954	98.44079019433578	0	0	37.3348264691687	-11.04444436068316	-1.827681478533978	43.63293237600332	82.54125842642816	0	0
6.879999999999941	-0.101442150440866	0.2264561864026289	25.67744338548322	0	0.9399999999999999	0	42.05360338953479	-9.983477234849572	-9.912510895845669	50.2771342714536	0.8775015315041458	0	0	0	42.05360338953479	-9.983477234849572	-9.912510895845669	50.2771342714536	0.8775015315041458	0	0	0	0.07498242527695147	0.1547501765448624	1.15366299589719	42.95892727283579	-2.292636882395518	-1.618502823706807	30.50204386154721	99.96432572236759	0	0	35.79890565486811	-10.75244886074668	-2.150217123916986	42.657061028262	82.8976041132684	0	0
6.899999999999941	-0.1662616957851877	0.1954791449258371	25.69019351641881	0	0.9399999999999999	0	42.08046753907438	-9.983833002180253	-9.913910787786632	50.31511742010285	0.8781644625083497	0	0	0	42.08046753907438	-9.983833002180253	-9.913910787786632	50.31511742010285	0.8781644625083497	0	0	0	0.003075422393226853	0.1545829885040109	1.13977825553691	41.83948611131306	-2.370536719258129	-1.204738991546126	31.92717954523567	99.61206069660305	0	0	34.20345103040746	-10.40275190798351	-2.107713378462972	41.86458053614189	83.02746940737988	0	0
6.91999999999994	-0.2061173373375809	0.2289490499093226	25.7089825713701	0	0.9399999999999999	0	42.10759634964298	-9.984189181213802	-9.915318012256758	50.35341881341235	0.8788329479297017	0	0	0	42.10759634964298	-9.984189181213802	-9.915318012256758	50.35341881341235	0.8788329479297017	0	0	0	-0.01842493915649876	0.2023008724307477	1.11172255379354	40.69125008439649	-2.403063201696121	-0.6640922363954302	33.17645202047675	99.21580401439222	0	0	32.59390309407286	-9.94006199629314	-2.131692934814087	41.151580084771	83.63948157766173	0	0
6.93999999999994	-0.2434185498896656	0.2560112831361887	25.71499317371418	0	0.9399999999999999	0	42.11564610212503	-9.984302332650206	-9.915752885505569	50.36431073039162	0.8790230477428438	0	0	0	42.11564610212503	-9.984302332650206	-9.915752885505569	50.36431073039162	0.8790230477428438	0	0	0	-0.0205919138395022	0.2125549108138041	1.095162692155392	39.45737649192101	-2.200206788536517	-0.4395195369686076	27.454339929125	101.3269458503731	0	0	31.09406794862873	-9.515644356789474	-2.143042864680906	40.37967717789344	84.33409495729344	0	0
6.95999999999994	-0.2362397228616842	0.2903707143084239	25.75104679810507	0	0.9399999999999999	0	42.1530341109504	-9.9847769570798	-9.917656015882381	50.41759926440167	0.8799531081148801	0	0	0	42.1530341109504	-9.9847769570798	-9.917656015882381	50.41759926440167	0.8799531081148801	0	0	0	0.0006255361656181441	0.2392793273045422	1.05756969732383	37.9961359021693	-2.406977572216699	0.3693351582212427	29.16757334755392	100.5877326958288	0	0	29.62034405562814	-9.213781263590077	-1.931595332483042	40.70424077378365	84.30616721735829	0	0
6.979999999999939	-0.1973356310763837	0.29694623437364	25.71101121148063	0	0.9399999999999999	0	42.16247564164295	-9.984904050733642	-9.918153466539289	50.43056797644819	0.8801794548398351	0	0	0	42.16247564164295	-9.984904050733642	-9.918153466539289	50.43056797644819	0.8801794548398351	0	0	0	0.03484573090659778	0.2372246053580599	1.024020509119437	36.45258378822919	-2.145674845906398	0.707708220912876	26.21298841302516	101.9842071465362	0	0	28.00310029632866	-8.898954967156589	-1.535735299863116	40.13939781031147	84.12335567463637	0	0
6.999999999999939	-0.2825834756806489	0.2454715863164654	25.71144126553919	0	0.9399999999999999	0	42.18355336342731	-9.985171188972288	-9.919225738026467	50.46038689924251	0.8806998932219939	0	0	0	42.18355336342731	-9.985171188972288	-9.919225738026467	50.46038689924251	0.8806998932219939	0	0	0	-0.06520036098738612	0.2306780124196972	1.033485730017279	34.00193146515573	-1.892595312857693	1.050560109722535	26.72426127040388	101.9396660006247	0	0	26.73769936229189	-8.478959629587138	-1.137296770659961	39.43705123094925	84.32153369931349	0	0
